<?xml version="1.0" standalone="no"?>
<!DOCTYPE svg PUBLIC "-//W3C//DTD SVG 20010904//EN"
 "http://www.w3.org/TR/2001/REC-SVG-20010904/DTD/svg10.dtd">
<svg version="1.0" xmlns="http://www.w3.org/2000/svg"
 width="635.000000pt" height="425.000000pt" viewBox="0 0 635.000000 425.000000"
 preserveAspectRatio="xMidYMid meet">

<g transform="translate(0.000000,425.000000) scale(0.100000,-0.100000)"
fill="#000000" stroke="none">
<path d="M2500 4061 c0 -4 -51 -11 -113 -14 -72 -3 -123 -11 -142 -21 -85 -43
-125 -56 -177 -56 -37 0 -60 -5 -68 -15 -6 -8 -21 -17 -32 -21 -11 -3 -56 -42
-100 -87 l-80 -81 -87 -13 c-47 -8 -128 -17 -180 -21 -92 -7 -95 -7 -119 18
-13 14 -35 42 -48 63 -13 20 -29 37 -35 37 -5 0 -29 9 -51 20 -67 32 -97 27
-136 -24 -39 -52 -40 -58 -4 -54 21 2 29 10 37 36 6 21 15 32 28 32 21 0 67
-39 67 -57 0 -6 9 -14 20 -18 21 -7 80 -76 80 -94 0 -7 -5 -17 -10 -24 -6 -7
-24 -27 -40 -46 -17 -20 -30 -46 -30 -61 0 -18 -13 -38 -40 -64 -22 -20 -40
-41 -40 -47 0 -6 -18 -9 -42 -7 l-43 3 -2 134 c-1 104 2 137 13 148 21 22 18
53 -6 53 -13 0 -20 -7 -20 -19 0 -10 -7 -24 -15 -31 -39 -33 -75 -191 -46
-202 12 -4 -8 -118 -25 -143 -11 -14 -14 -61 -14 -182 0 -102 -4 -163 -10
-163 -5 0 -10 -9 -10 -21 0 -11 -9 -57 -20 -102 -11 -45 -25 -104 -31 -132 -7
-27 -24 -75 -38 -105 -24 -51 -26 -66 -29 -227 -2 -96 -8 -173 -13 -173 -5 0
-9 -7 -9 -15 0 -8 4 -15 9 -15 5 0 11 -21 14 -47 7 -68 35 -125 90 -186 15
-16 46 -56 69 -89 22 -32 45 -58 49 -58 5 0 9 -13 9 -29 0 -16 6 -34 14 -40 8
-7 18 -26 21 -42 4 -16 10 -31 15 -34 5 -3 41 -72 82 -153 40 -81 87 -167 104
-192 17 -25 39 -63 49 -85 10 -22 24 -47 30 -55 7 -8 18 -31 24 -51 7 -20 25
-57 41 -81 45 -67 81 -206 95 -363 7 -66 6 -71 -19 -94 -14 -14 -26 -30 -26
-37 0 -6 -11 -15 -24 -18 -38 -9 -55 -47 -62 -141 -6 -70 -4 -85 7 -85 8 0 20
-12 26 -27 22 -51 50 -93 76 -113 21 -16 40 -20 111 -20 51 0 86 4 86 10 0 6
8 10 18 10 10 0 24 9 32 20 8 11 20 20 27 20 7 0 13 7 13 15 0 8 18 23 39 32
22 9 44 27 50 40 6 13 17 23 26 23 12 0 15 -15 15 -78 0 -79 15 -132 37 -132
7 0 27 -9 45 -20 27 -16 51 -20 131 -20 58 0 97 4 97 10 0 12 79 90 91 90 5 0
9 7 9 15 0 8 17 31 38 52 22 21 42 46 45 55 3 10 18 20 32 24 l25 6 0 158 0
157 30 42 c25 33 33 59 42 124 6 45 20 106 31 136 17 46 22 51 32 37 15 -19
45 -21 45 -3 0 7 -5 18 -12 25 -8 8 3 24 45 64 32 29 57 57 57 61 0 29 70 51
85 27 10 -16 45 -12 45 5 0 8 7 15 15 15 8 0 20 9 27 20 14 21 43 27 53 10 3
-6 28 -10 55 -10 45 0 50 3 56 25 3 14 9 25 13 25 4 0 22 15 41 32 33 33 33
33 130 32 l97 -1 16 38 17 38 97 3 c86 3 98 5 101 21 2 11 11 27 20 38 20 23
84 26 102 4 17 -21 76 -20 84 2 13 33 39 -12 47 -80 4 -43 14 -74 29 -95 30
-40 95 -86 145 -102 22 -7 66 -30 98 -51 31 -22 76 -47 100 -56 23 -9 52 -28
64 -43 17 -20 38 -30 84 -39 34 -7 87 -25 118 -41 31 -16 92 -38 136 -50 44
-12 88 -25 98 -27 9 -3 17 -9 17 -14 0 -5 7 -9 15 -9 8 0 34 -11 59 -25 24
-13 63 -27 87 -31 24 -4 53 -13 64 -20 11 -7 39 -20 63 -28 23 -9 57 -22 75
-30 38 -17 257 -27 320 -15 23 5 98 15 167 24 145 19 170 24 170 36 0 5 9 9
20 9 11 0 20 5 20 10 0 6 7 10 15 10 22 0 20 79 -3 106 -9 12 -53 34 -97 49
-44 15 -84 31 -90 35 -5 4 -26 10 -46 14 -21 4 -42 13 -49 21 -7 8 -23 15 -36
15 -13 0 -24 4 -24 9 0 4 -17 20 -39 35 -21 15 -47 42 -57 61 -12 24 -32 40
-66 54 -26 11 -67 33 -90 49 -24 16 -69 39 -102 51 -32 12 -68 28 -80 36 -11
8 -28 15 -37 15 -9 0 -24 9 -34 20 -10 11 -44 30 -77 41 -35 13 -58 28 -58 37
0 10 -7 13 -21 9 -23 -6 -121 38 -176 79 -17 13 -35 24 -40 24 -4 0 -31 23
-60 50 -29 28 -57 50 -62 50 -6 0 -13 11 -17 25 -3 14 -15 30 -25 36 -11 5
-19 16 -19 25 0 15 -4 22 -75 134 -22 36 -46 77 -53 93 -6 15 -16 27 -22 27
-5 0 -10 9 -10 20 0 11 -9 29 -20 40 -11 11 -20 28 -20 38 0 10 -6 26 -14 37
-7 11 -17 31 -21 45 -4 14 -20 44 -36 68 -16 24 -29 52 -29 64 0 24 -25 164
-46 258 -8 36 -14 75 -14 88 0 12 -4 30 -10 40 -5 9 -17 53 -25 97 -9 44 -19
93 -22 108 -3 18 -21 40 -47 59 -22 16 -44 38 -48 49 -4 10 -13 19 -20 19 -11
0 -108 147 -108 164 0 4 -13 21 -30 39 -30 34 -98 134 -125 187 -8 16 -42 56
-75 87 -33 31 -60 62 -60 69 0 6 -7 17 -16 24 -8 8 -21 28 -29 46 -19 45 -140
133 -279 202 -61 30 -124 64 -139 75 -15 10 -59 34 -97 52 -37 19 -71 39 -75
44 -8 14 -55 14 -55 1 0 -6 -38 -10 -94 -10 -53 0 -98 4 -101 10 -7 12 -115
14 -115 1z m115 -82 c12 -21 16 -58 16 -125 0 -82 2 -94 17 -95 14 -1 14 -2
-2 -6 -18 -5 -19 -14 -13 -152 6 -151 -5 -231 -30 -231 -7 0 -13 8 -13 19 0
10 -11 35 -25 55 -14 20 -25 40 -25 44 0 13 -81 102 -93 102 -7 0 -23 12 -36
25 -15 17 -34 25 -56 25 -25 0 -34 5 -39 23 -13 50 -6 94 23 133 28 40 86 94
100 94 4 0 16 8 27 18 10 9 38 30 62 45 24 15 45 34 49 42 8 23 21 18 38 -16z
m-585 -897 c0 -20 52 -103 109 -177 45 -57 47 -62 35 -90 -17 -39 -8 -241 12
-272 8 -12 30 -29 49 -39 19 -9 35 -20 35 -25 0 -5 6 -9 13 -9 18 0 57 -38 57
-55 0 -10 -10 -15 -30 -15 -20 0 -30 -5 -30 -15 0 -8 -7 -15 -15 -15 -8 0 -15
-7 -15 -15 0 -12 17 -15 93 -15 89 0 141 -10 237 -45 62 -23 66 -28 50 -75
-19 -57 -37 -70 -50 -35 -15 41 -66 101 -104 124 -27 17 -50 21 -125 21 -71 0
-91 -3 -91 -14 0 -19 22 -26 82 -26 50 0 96 -22 125 -60 6 -8 29 -34 52 -58
43 -46 44 -59 5 -101 l-22 -24 -13 58 c-10 44 -25 72 -62 116 -47 57 -50 59
-98 59 -37 0 -49 -4 -49 -15 0 -9 9 -15 23 -15 38 0 114 -81 138 -147 12 -32
25 -62 29 -68 5 -5 -1 -21 -12 -34 -16 -21 -22 -23 -39 -13 -10 7 -41 12 -68
12 -70 0 -81 6 -81 46 0 24 -5 34 -15 34 -11 0 -15 -12 -15 -45 0 -54 15 -65
95 -65 48 0 58 -3 62 -20 9 -33 55 -26 78 12 10 18 20 27 23 20 2 -7 11 -12
19 -12 11 0 14 7 11 25 -4 19 2 31 23 50 16 13 29 28 29 34 0 6 7 11 15 11 8
0 15 9 15 19 0 11 8 26 18 33 10 7 24 32 31 56 8 23 20 42 28 42 7 0 13 -4 13
-10 0 -5 7 -10 15 -10 17 0 20 31 6 45 -14 14 18 77 41 83 10 2 19 12 19 21 4
46 17 -57 18 -137 1 -73 -3 -101 -18 -130 -10 -20 -22 -53 -26 -72 -4 -19 -13
-42 -21 -50 -22 -26 -52 -164 -53 -247 l-1 -53 39 0 c34 0 40 4 51 31 7 17 25
43 40 57 14 15 35 45 46 67 17 37 23 40 64 43 39 3 48 0 67 -25 21 -26 28 -28
88 -28 58 0 65 -2 65 -20 0 -37 -20 -93 -35 -99 -8 -3 -15 -13 -15 -23 0 -10
-9 -33 -20 -51 -11 -18 -20 -38 -20 -46 0 -7 -9 -21 -20 -31 -10 -9 -27 -37
-36 -61 -9 -24 -25 -46 -36 -50 -10 -3 -39 -26 -63 -50 -25 -24 -49 -44 -54
-44 -5 0 -29 -28 -54 -62 -69 -95 -99 -129 -131 -148 -51 -32 -95 -128 -113
-244 -10 -67 -20 -101 -43 -136 -30 -47 -30 -47 -30 -198 0 -104 -3 -152 -11
-152 -14 0 -129 -121 -129 -135 0 -6 -20 -27 -43 -47 l-44 -36 -12 46 c-7 26
-15 64 -18 85 -3 22 -11 37 -19 37 -19 0 -18 -62 1 -115 8 -22 14 -50 15 -62
0 -21 -4 -23 -57 -23 -61 0 -152 34 -153 58 0 6 -6 12 -12 12 -9 0 -10 3 -2 8
19 12 34 49 34 82 0 23 5 33 20 37 28 7 25 33 -4 33 -28 0 -42 -15 -49 -50 -2
-14 -3 -5 -1 20 4 46 32 141 44 150 3 3 12 20 19 38 8 17 17 32 21 32 4 0 10
62 13 138 7 140 22 226 51 283 9 18 16 40 16 50 0 10 4 20 9 23 5 3 11 20 14
38 3 18 10 51 16 73 6 22 11 75 11 118 0 62 -3 77 -15 77 -12 0 -15 -14 -15
-63 0 -34 -6 -87 -14 -117 -7 -30 -16 -67 -20 -81 -4 -21 -14 -28 -40 -33 -43
-8 -70 2 -131 53 -27 22 -55 41 -62 41 -7 0 -16 6 -20 14 -11 18 -87 56 -113
56 -31 0 -24 -23 13 -39 40 -18 144 -87 175 -117 21 -21 22 -26 11 -61 -7 -22
-14 -139 -18 -280 -5 -168 -11 -247 -19 -255 -7 -7 -12 -26 -12 -44 0 -31 -45
-94 -68 -94 -5 0 -24 -13 -41 -29 l-31 -29 -25 24 c-18 16 -25 33 -25 59 0 24
-4 35 -15 35 -11 0 -15 -12 -15 -45 0 -36 6 -52 25 -71 14 -14 25 -27 25 -29
0 -13 -71 -35 -112 -35 -50 0 -108 24 -108 45 0 6 -11 26 -24 45 -43 63 -12
159 52 160 13 0 22 6 22 15 0 20 -58 20 -84 0 -26 -20 -36 -19 -36 4 0 21 44
61 66 61 8 0 14 9 14 20 0 11 12 27 26 37 27 17 27 17 20 114 -11 174 -54 346
-97 390 -9 9 -24 38 -34 65 -10 27 -23 56 -30 64 -6 8 -24 42 -40 75 -16 33
-37 69 -47 79 -10 11 -51 88 -93 172 -42 84 -80 156 -85 159 -5 3 -11 18 -15
34 -3 16 -13 35 -21 42 -8 6 -14 24 -14 40 0 15 -6 32 -13 36 -7 4 -30 33 -52
63 -22 30 -58 76 -80 103 -38 44 -84 141 -72 153 4 5 83 -27 117 -48 54 -31
105 -49 137 -46 33 3 38 7 47 38 5 19 14 38 19 41 5 4 12 27 14 53 l6 46 109
0 110 0 -31 -26 c-17 -14 -31 -33 -31 -41 0 -18 -38 -83 -57 -98 -7 -5 -31
-46 -53 -89 -32 -63 -40 -91 -40 -133 0 -71 20 -70 44 2 11 30 27 63 38 74 10
11 18 27 18 35 0 21 32 86 42 86 4 0 8 9 8 19 0 21 57 81 77 81 6 0 18 7 27
15 8 8 36 18 62 22 54 7 55 9 -22 -71 -23 -23 -49 -61 -59 -84 -11 -23 -22
-42 -26 -42 -11 0 -38 -92 -45 -154 -6 -48 -4 -56 10 -56 9 0 18 6 20 13 24
92 87 234 124 281 10 13 55 49 101 80 72 49 88 56 131 56 38 0 50 4 50 15 0
12 -15 15 -79 15 -43 0 -92 -5 -109 -11 -26 -9 -35 -8 -47 4 -8 9 -15 20 -15
26 0 6 -7 11 -15 11 -8 0 -15 5 -15 10 0 7 -58 10 -175 8 -162 -3 -214 3 -147
17 15 4 35 10 44 16 10 5 99 9 197 9 109 0 182 4 186 10 3 6 24 10 46 10 28 0
39 4 39 15 0 9 17 20 46 27 26 7 49 18 51 25 3 7 18 13 33 13 16 0 30 7 34 16
11 28 6 84 -9 121 -8 19 -15 48 -15 64 0 16 -4 29 -9 29 -20 0 -16 36 6 53 32
26 104 218 111 296 4 57 7 62 18 46 8 -11 14 -25 14 -33z m369 -207 c-25 -41
-39 -52 -39 -30 0 8 -7 18 -15 21 -21 9 4 31 41 37 16 2 30 5 31 6 1 0 -7 -15
-18 -34z m-135 -56 c3 -17 3 -35 0 -40 -7 -13 -65 -42 -71 -36 -5 6 23 75 38
94 18 20 26 16 33 -18z m-654 -43 l0 -44 -31 29 c-17 16 -35 29 -39 29 -4 0
-10 7 -14 15 -4 12 4 15 39 15 l45 0 0 -44z m137 -8 c30 -28 29 -42 -2 -56
-38 -18 -40 -16 -37 33 2 25 7 45 10 45 3 0 16 -10 29 -22z m950 -100 c-3 -8
-6 -5 -6 6 -1 11 2 17 5 13 3 -3 4 -12 1 -19z m-1217 -403 c0 -2 -10 -9 -22
-15 -22 -11 -22 -10 -4 4 21 17 26 19 26 11z m627 -1220 c2 -1 -6 -26 -16 -56
-25 -69 -41 -188 -41 -294 0 -46 -3 -85 -7 -87 -5 -1 -22 -30 -38 -63 l-30
-60 3 210 c2 181 10 276 28 346 4 13 14 15 52 11 26 -2 48 -6 49 -7z m-147
-615 l-8 -35 -1 31 c-1 17 2 34 6 37 11 12 12 3 3 -33z m-503 -17 c-3 -10 -5
-4 -5 12 0 17 2 24 5 18 2 -7 2 -21 0 -30z"/>
<path d="M2137 2403 c-4 -3 -7 -15 -7 -25 0 -22 -48 -78 -67 -78 -7 0 -13 7
-13 15 0 9 -8 18 -17 22 -10 3 -27 14 -38 24 -14 12 -25 15 -35 9 -12 -7 -5
-19 37 -60 28 -27 56 -50 62 -50 6 0 11 -6 11 -14 0 -16 -50 -36 -91 -36 -38
0 -59 -9 -59 -26 0 -18 4 -18 258 23 20 3 32 11 32 20 0 13 -11 15 -55 11 -48
-4 -55 -2 -55 14 0 10 13 30 29 46 26 24 36 55 32 100 -1 13 -14 16 -24 5z"/>
<path d="M1570 340 c0 -36 4 -52 15 -57 23 -8 25 -2 18 55 -8 71 -33 72 -33 2z"/>
<path d="M2831 808 c-33 -34 -37 -59 -25 -152 5 -31 11 -46 22 -46 12 0 14 12
10 70 -5 66 -4 71 23 97 30 30 38 63 15 63 -7 0 -28 -14 -45 -32z"/>
<path d="M2968 788 c-3 -29 -11 -54 -17 -56 -6 -2 -11 -25 -11 -53 0 -37 4
-49 15 -49 10 0 15 10 15 34 0 19 5 36 12 38 7 3 14 32 16 71 4 55 2 67 -11
67 -10 0 -16 -15 -19 -52z"/>
<path d="M3070 751 c0 -17 -4 -33 -10 -36 -6 -3 -10 -50 -10 -106 0 -89 2 -99
18 -99 16 0 18 8 14 90 -3 62 -1 90 7 90 6 0 11 18 11 45 0 33 -4 45 -15 45
-10 0 -15 -10 -15 -29z"/>
</g>
</svg>
